<svg xmlns="http://www.w3.org/2000/svg" viewBox="0 0 1440 320"><path fill="#5e87eb" fill-opacity="1" d="M0,320L30,288C60,256,120,192,180,170.7C240,149,300,171,360,197.3C420,224,480,256,540,266.7C600,277,660,267,720,245.3C780,224,840,192,900,181.3C960,171,1020,181,1080,208C1140,235,1200,277,1260,277.3C1320,277,1380,235,1410,213.3L1440,192L1440,0L1410,0C1380,0,1320,0,1260,0C1200,0,1140,0,1080,0C1020,0,960,0,900,0C840,0,780,0,720,0C660,0,600,0,540,0C480,0,420,0,360,0C300,0,240,0,180,0C120,0,60,0,30,0L0,0Z"/></svg>